<svg width="102" height="100" viewBox="0 0 102 100" fill="none" xmlns="http://www.w3.org/2000/svg">
<path fill-rule="evenodd" clip-rule="evenodd" d="M34.7712 59.3429C35.1095 66.3712 41.0266 72.3066 47.6983 72.3066C54.3609 72.3062 60.271 66.3874 60.6238 59.3716L60.3731 49.4406C56.4894 52.8683 53.0572 52.7541 52.6866 52.7308C52.2483 52.705 51.8565 52.4335 51.6825 52.022C51.4904 51.5678 51.6048 51.0425 51.9683 50.7096C52.6503 50.0843 53.0016 49.264 53.1779 48.5047C45.5966 53.2496 37.8126 52.5467 34.588 51.9588L34.7712 59.3429ZM47.6981 74.6353C43.7801 74.6353 40.0272 73.0128 37.1308 70.0661C34.2957 67.1813 32.6311 63.4079 32.4441 59.4401C32.4437 59.4312 32.4433 59.4227 32.4431 59.4142L32.2225 50.526C32.2134 50.1539 32.3822 49.8007 32.6768 49.574C32.9714 49.3474 33.3565 49.2754 33.7132 49.3791C33.8181 49.4092 44.4781 52.3731 53.7564 45.2717C54.0843 45.0203 54.5208 44.9621 54.9031 45.1176C55.2856 45.2733 55.557 45.6198 55.6166 46.0284C55.633 46.1407 55.8907 48.0229 55.1692 49.9673C56.5988 49.4456 58.5426 48.3185 60.5751 45.8956C60.8865 45.5244 61.3947 45.3849 61.8518 45.5448C62.3089 45.7045 62.6193 46.1305 62.6316 46.6145L62.9534 59.3557C62.9539 59.3839 62.9537 59.412 62.9523 59.4401C62.7653 63.4079 61.1009 67.1816 58.2662 70.0658C55.3699 73.0127 51.6169 74.6357 47.6981 74.6353Z" fill="#1FB37F"/>
<path fill-rule="evenodd" clip-rule="evenodd" d="M83.2516 100H11.9599C11.3168 100 10.7954 99.4791 10.7954 98.8358C10.7954 92.2244 14.6851 86.1876 20.7051 83.4557L39.4829 74.9323V71.4099C39.4829 70.7667 40.004 70.2456 40.6472 70.2456C41.2905 70.2453 41.8117 70.767 41.8117 71.4102V75.6823C41.8117 76.1391 41.5447 76.5542 41.1286 76.743L21.6677 85.5765C16.8336 87.7701 13.5928 92.4359 13.1713 97.6713L82.0399 97.671C81.6183 92.4355 78.3776 87.7705 73.5435 85.5766L54.0826 76.7432C53.6665 76.554 53.3994 76.1395 53.3994 75.6827V71.526C53.3994 70.8827 53.9206 70.3617 54.5637 70.3617C55.2071 70.3614 55.7283 70.883 55.7283 71.5262V74.9323L74.5061 83.4557C80.5259 86.1874 84.4156 92.2247 84.4156 98.8358C84.4157 99.4788 83.8947 100 83.2516 100Z" fill="#1FB37F"/>
<path fill-rule="evenodd" clip-rule="evenodd" d="M72.3086 99.9998C71.6655 99.9998 71.144 99.4788 71.144 98.8356V92.2101C71.144 91.5673 71.6655 91.0459 72.3086 91.0459C72.9517 91.0456 73.4731 91.5673 73.4731 92.2104V98.8352C73.4731 99.4785 72.9517 100 72.3086 99.9998Z" fill="#1FB37F"/>
<path fill-rule="evenodd" clip-rule="evenodd" d="M22.9019 99.9998C22.2588 99.9998 21.7375 99.4788 21.7375 98.8356V92.2101C21.7375 91.5673 22.2588 91.0459 22.9019 91.0459C23.5452 91.0456 24.0665 91.5673 24.0665 92.2104V98.8352C24.0665 99.4785 23.5452 100 22.9019 99.9998Z" fill="#1FB37F"/>
<path fill-rule="evenodd" clip-rule="evenodd" d="M33.5333 58.9959C33.289 58.9959 33.0431 58.9195 32.833 58.7612C32.3894 58.4263 30.1387 56.5285 29.4008 52.0195C28.1813 44.5627 31.9563 37.1614 38.7944 33.6021C43.1461 31.3355 51.6311 28.8526 59.8651 37.435C60.8074 37.6509 62.9556 38.3903 64.3811 40.7828C66.5966 44.5009 66.0594 50.3866 62.785 58.2762C62.5385 58.8698 61.8573 59.152 61.2629 58.9053C60.669 58.6583 60.3873 57.9773 60.6337 57.3833C64.3219 48.4971 63.6337 44.1242 62.407 42.0204C61.1934 39.9391 59.2316 39.6771 59.1488 39.667C58.8687 39.6379 58.6192 39.5098 58.4272 39.3039C51.5256 31.905 44.5264 33.2427 39.87 35.6681C33.9259 38.7618 30.6426 45.1818 31.6993 51.6435C32.3168 55.4158 34.1574 56.8427 34.2355 56.9016C34.749 57.2886 34.8513 58.0191 34.4639 58.5327C34.2351 58.8362 33.8863 58.9959 33.5333 58.9959Z" fill="#1FB37F"/>
<path fill-rule="evenodd" clip-rule="evenodd" d="M44.301 99.9999C44.2454 99.9999 44.1889 99.9964 44.1323 99.9882C43.4959 99.8958 43.0547 99.305 43.1472 98.6685L44.6942 87.9992L43.1553 83.6458C42.941 83.0389 43.2585 82.3741 43.8649 82.1597C44.4712 81.9453 45.1366 82.2629 45.3511 82.8695L46.9857 87.4934C47.0298 87.618 47.0524 87.7495 47.0524 87.8815C47.0524 87.9373 47.0484 87.9949 47.0403 88.0503L45.452 99.0023C45.3681 99.5823 44.8701 100 44.301 99.9999Z" fill="#1FB37F"/>
<path fill-rule="evenodd" clip-rule="evenodd" d="M50.908 100C50.3388 100 49.841 99.5828 49.757 99.0029L48.1688 88.0484C48.1418 87.8619 48.1603 87.6718 48.2231 87.4941L49.856 82.8684C50.0701 82.262 50.7353 81.944 51.3418 82.158C51.9484 82.3717 52.2666 83.0375 52.0523 83.644L50.515 87.9984L52.0619 98.6685C52.1542 99.305 51.713 99.8961 51.0766 99.9883C51.0199 99.9964 50.9635 100 50.908 100Z" fill="#1FB37F"/>
<path fill-rule="evenodd" clip-rule="evenodd" d="M49.3195 89.0478H45.8877C45.2446 89.0478 44.7231 88.5266 44.7231 87.8834C44.7231 87.2401 45.2446 86.7189 45.8877 86.7189L49.3195 86.7188C49.9628 86.7188 50.4841 87.2404 50.4841 87.8834C50.4841 88.5265 49.9628 89.048 49.3195 89.0478Z" fill="#1FB37F"/>
<path fill-rule="evenodd" clip-rule="evenodd" d="M41.1112 84.5909L41.1126 84.5927C41.1122 84.5922 41.1116 84.5917 41.1112 84.5909ZM40.8038 86.763C40.6957 86.763 40.5873 86.754 40.4798 86.7359C39.9531 86.6461 39.4966 86.3547 39.1943 85.9141L34.2775 78.8014C33.9118 78.2724 34.0442 77.5472 34.5733 77.1815C35.1024 76.8157 35.8276 76.948 36.1936 77.4772L40.8962 84.2797L53.8743 74.7436C54.3925 74.3629 55.1213 74.4745 55.5022 74.9929C55.8832 75.511 55.7718 76.2399 55.2533 76.6208L41.9684 86.3823C41.6303 86.6307 41.2191 86.7631 40.8038 86.763Z" fill="#1FB37F"/>
<path fill-rule="evenodd" clip-rule="evenodd" d="M54.4134 86.7734C53.9995 86.7734 53.5978 86.6426 53.2575 86.3928L39.9576 76.6204C39.4392 76.2396 39.3277 75.5111 39.7087 74.9927C40.0894 74.4741 40.8185 74.3631 41.3366 74.7438L54.3363 84.295L59.2208 77.5425C59.5976 77.0211 60.3256 76.9046 60.8469 77.2818C61.3681 77.6585 61.4848 78.3869 61.1079 78.9079L56.0047 85.9623C55.695 86.3894 55.2386 86.6687 54.7192 86.7498C54.6172 86.7656 54.5148 86.7736 54.4134 86.7734Z" fill="#1FB37F"/>
<path fill-rule="evenodd" clip-rule="evenodd" d="M86.6553 72.3594C87.6731 72.8484 88.7397 73.0971 89.8252 73.0971C95.0044 73.0968 99.38 66.9468 99.38 59.6667C99.38 52.5148 95.0942 46.6968 89.826 46.6968C88.1991 46.6966 86.5898 47.2679 85.1719 48.3486C84.7552 48.6663 84.1774 48.6665 83.7604 48.349C82.3412 47.2679 80.7316 46.6968 79.1057 46.6968C73.8376 46.6966 69.5518 52.515 69.5518 59.6667C69.5518 66.9465 73.9269 73.0971 79.1057 73.0971C80.1914 73.0968 81.2581 72.8488 82.2761 72.3592C83.6675 71.6894 85.2635 71.6896 86.6553 72.3594ZM89.8252 75.4259C88.3871 75.4259 86.981 75.1004 85.6456 74.4582C85.6456 74.4584 85.6454 74.4579 85.6456 74.4582C84.9072 74.1029 84.0243 74.1027 83.2858 74.4579C81.95 75.1002 80.5436 75.4259 79.1057 75.4259C75.8804 75.4259 72.8538 73.7034 70.5841 70.5755C68.4165 67.5884 67.2227 63.7143 67.2227 59.6667C67.2227 51.2306 72.5533 44.3677 79.1057 44.3677C80.9753 44.3675 82.8123 44.9293 84.4657 45.9996C86.1183 44.9293 87.9555 44.3677 89.826 44.3677C96.3785 44.3675 101.709 51.2308 101.709 59.6667C101.709 63.714 100.515 67.5885 98.3472 70.5755C96.0772 73.7032 93.0506 75.4259 89.8252 75.4259Z" fill="#1FB37F"/>
<path fill-rule="evenodd" clip-rule="evenodd" d="M85.6763 47.7951C85.0332 47.7951 84.5117 47.274 84.5117 46.6309V34.6361C84.5117 33.9929 85.0332 33.4717 85.6763 33.4717C86.3194 33.4715 86.8406 33.993 86.8406 34.6362V46.6305C86.8406 47.2738 86.3194 47.7953 85.6763 47.7951Z" fill="#1FB37F"/>
<path fill-rule="evenodd" clip-rule="evenodd" d="M92.7973 47.2475C92.4808 47.2475 92.1651 47.1193 91.9355 46.8666C91.5026 46.3905 91.5378 45.6541 92.0135 45.2215C94.1068 43.3176 95.2522 40.6051 95.1557 37.778L95.1493 37.585L94.9584 37.5918C91.463 37.7105 88.304 39.7218 86.713 42.84C86.4207 43.4127 85.7193 43.6404 85.1463 43.3481C84.5733 43.0556 84.3459 42.3541 84.6382 41.7814C86.6141 37.9088 90.5378 35.412 94.878 35.2642L95.8307 35.2303C96.2524 35.2168 96.6492 35.3663 96.9547 35.6517C97.2609 35.9378 97.4373 36.326 97.4511 36.7449L97.4836 37.6987C97.6034 41.2101 96.1808 44.5803 93.5804 46.9447C93.3574 47.1474 93.077 47.2477 92.7973 47.2475Z" fill="#1FB37F"/>
<path fill-rule="evenodd" clip-rule="evenodd" d="M87.3811 47.0664C87.0964 47.0664 86.8109 46.9627 86.5865 46.7531C86.1164 46.3135 86.0913 45.577 86.5303 45.1071L90.5847 40.7656C91.0237 40.2956 91.7606 40.2704 92.2309 40.7097C92.7008 41.1486 92.726 41.8856 92.2869 42.3556L88.2325 46.6966C88.0031 46.9422 87.6926 47.0665 87.3811 47.0664Z" fill="#1FB37F"/>
<path fill-rule="evenodd" clip-rule="evenodd" d="M94.2233 60.3961C93.6115 60.3961 93.0984 59.9188 93.0618 59.3002C92.8862 56.3161 91.2448 54.4704 91.2282 54.4524C90.7905 53.981 90.8178 53.2443 91.2893 52.8067C91.7608 52.3693 92.4977 52.3964 92.935 52.8676C93.0258 52.9653 95.1599 55.3055 95.3868 59.1633C95.4246 59.8051 94.9349 60.3564 94.2929 60.3942C94.2696 60.3956 94.2463 60.3964 94.2233 60.3961Z" fill="#1FB37F"/>
<path fill-rule="evenodd" clip-rule="evenodd" d="M86.186 50.5293C85.6992 50.5293 85.2452 50.2221 85.0819 49.735C84.8621 49.0795 84.1672 48.5867 83.9181 48.4516C83.3555 48.1471 83.1399 47.4435 83.4404 46.8787C83.7406 46.3133 84.4363 46.0946 85.0034 46.391C85.1789 46.4825 86.7328 47.3334 87.29 48.9943C87.4947 49.6036 87.1661 50.2642 86.5563 50.4688C86.4337 50.5098 86.3086 50.5295 86.186 50.5293Z" fill="#1FB37F"/>
<path fill-rule="evenodd" clip-rule="evenodd" d="M12.5624 61.1268H16.7997V47.7695H12.5624V61.1268ZM17.9642 63.4559H11.3979C10.7548 63.4559 10.2334 62.9346 10.2334 62.2914V46.605C10.2334 45.9623 10.7548 45.4408 11.3979 45.4408L17.9642 45.4404C18.6073 45.4404 19.1287 45.9623 19.1287 46.6054V62.2914C19.1287 62.9342 18.6073 63.4559 17.9642 63.4559Z" fill="#1FB37F"/>
<path fill-rule="evenodd" clip-rule="evenodd" d="M9.26993 42.0547C9.07727 42.0547 8.91442 42.2175 8.91442 42.4102V45.0852C8.91442 45.2781 9.07727 45.4408 9.26993 45.4408L20.0921 45.4404C20.2849 45.4404 20.4476 45.2781 20.4476 45.0855V42.4099C20.4476 42.2175 20.2848 42.0548 20.0921 42.0548L9.26993 42.0547ZM20.0921 47.7695H9.26993C7.7896 47.7695 6.58545 46.5656 6.58545 45.0855V42.4099C6.58545 40.9297 7.7896 39.7257 9.26993 39.7257L20.0921 39.7256C21.5725 39.7256 22.7767 40.9299 22.7767 42.4102V45.0852C22.7767 46.5655 21.5725 47.7697 20.0921 47.7695Z" fill="#1FB37F"/>
<path fill-rule="evenodd" clip-rule="evenodd" d="M6.16916 36.3398C5.97638 36.3398 5.81365 36.5026 5.81365 36.6953V39.3699C5.81365 39.5628 5.97638 39.7258 6.16916 39.7258L23.1926 39.7257C23.3854 39.7257 23.5483 39.563 23.5483 39.3703V36.6951C23.5483 36.5022 23.3853 36.3398 23.1926 36.3398H6.16916ZM23.1926 42.0548H6.16916C4.68884 42.0548 3.48462 40.8507 3.48462 39.3703V36.6951C3.48462 35.2148 4.68884 34.0107 6.16916 34.0107H23.1926C24.673 34.0107 25.8771 35.2149 25.8771 36.6953V39.3699C25.8771 40.8506 24.673 42.0549 23.1926 42.0548Z" fill="#1FB37F"/>
<path fill-rule="evenodd" clip-rule="evenodd" d="M9.26993 63.4561C9.07727 63.4561 8.91442 63.6188 8.91442 63.8115V66.4867C8.91442 66.6791 9.07727 66.8421 9.26993 66.8421L20.0921 66.8419C20.2849 66.8419 20.4476 66.6794 20.4476 66.4868V63.8114C20.4476 63.6185 20.2848 63.4561 20.0921 63.4561H9.26993ZM20.0921 69.171H9.26993C7.7896 69.171 6.58545 67.9669 6.58545 66.4868V63.8114C6.58545 62.3311 7.7896 61.127 9.26993 61.127H20.0921C21.5725 61.127 22.7767 62.3312 22.7767 63.8115V66.4867C22.7767 67.9669 21.5725 69.1711 20.0921 69.171Z" fill="#1FB37F"/>
<path fill-rule="evenodd" clip-rule="evenodd" d="M6.16916 69.1714C5.97638 69.1714 5.81365 69.3344 5.81365 69.5269V72.202C5.81365 72.3944 5.97638 72.5577 6.16916 72.5577L23.1926 72.5577C23.3854 72.5577 23.5483 72.3947 23.5483 72.2022V69.5266C23.5483 69.3342 23.3853 69.1715 23.1926 69.1715L6.16916 69.1714ZM23.1926 74.8863H6.16916C4.68884 74.8863 3.48462 73.6824 3.48462 72.2022V69.5266C3.48462 68.0464 4.68884 66.8425 6.16916 66.8425L23.1926 66.8423C24.673 66.8423 25.8771 68.0467 25.8771 69.5269V72.202C25.8771 73.6822 24.673 74.8866 23.1926 74.8863Z" fill="#1FB37F"/>
<path fill-rule="evenodd" clip-rule="evenodd" d="M57.8848 23.2214C57.2417 23.2214 56.7202 22.7006 56.7202 22.0575V5.72495C56.7202 5.1977 57.0742 4.73665 57.5834 4.60026L74.6028 0.0396276C74.9525 -0.0540854 75.3258 0.0205456 75.613 0.240908C75.9003 0.461271 76.0685 0.802793 76.0685 1.1649V18.0824C76.0685 18.7256 75.5473 19.2472 74.904 19.2472C74.2609 19.2469 73.7396 18.7259 73.7396 18.0827L73.7397 2.68215L59.0492 6.61842V22.0573C59.0492 22.7006 58.528 23.2218 57.8848 23.2214Z" fill="#1FB37F"/>
<path fill-rule="evenodd" clip-rule="evenodd" d="M53.6572 20.0419C51.9969 20.0419 50.594 20.9649 50.594 22.0573C50.594 23.1494 51.9969 24.0724 53.6572 24.0724C55.3175 24.0724 56.7202 23.1496 56.7202 22.0573C56.7202 20.9645 55.3175 20.0419 53.6572 20.0419ZM53.6572 26.4015C50.684 26.4015 48.2651 24.4526 48.2651 22.0573C48.2651 19.6616 50.684 17.7129 53.6572 17.7129C56.6305 17.7128 59.0491 19.6618 59.0491 22.0573C59.0492 24.4526 56.6305 26.4015 53.6572 26.4015Z" fill="#1FB37F"/>
<path fill-rule="evenodd" clip-rule="evenodd" d="M70.6769 16.0669C69.0166 16.0669 67.6138 16.9901 67.6138 18.0825C67.6138 19.1748 69.0165 20.0976 70.6768 20.0976C72.3373 20.0974 73.74 19.1748 73.74 18.0825C73.7401 16.9899 72.3373 16.0673 70.6769 16.0669ZM70.6769 22.4265C67.7036 22.4265 65.2847 20.478 65.2847 18.0825C65.2847 15.6866 67.7036 13.7383 70.6768 13.7383C73.6501 13.7383 76.0689 15.687 76.0689 18.0825C76.0689 20.4776 73.65 22.4267 70.6769 22.4265Z" fill="#1FB37F"/>
<path fill-rule="evenodd" clip-rule="evenodd" d="M25.6542 3.66959C23.3476 3.66959 21.4711 5.5464 21.4711 7.85302C21.4712 12.456 26.1832 17.4163 31.0021 22.2488C35.821 17.4163 40.533 12.4563 40.533 7.85302C40.533 5.54607 38.6564 3.66979 36.3499 3.66979C34.3645 3.66959 33.318 4.48805 32.0437 7.03699C31.8464 7.43118 31.4431 7.68062 31.0021 7.68062C30.561 7.68043 30.1577 7.43151 29.9604 7.03699C28.6859 4.48798 27.6396 3.66979 25.6542 3.66959ZM31.0021 25.0605C30.704 25.0605 30.4061 24.9473 30.1786 24.7198C24.7527 19.2936 19.1421 13.6833 19.1421 7.85302C19.1421 4.26187 22.0633 1.34082 25.6542 1.34082C28.2334 1.34049 29.7882 2.42995 31.0021 4.19259C32.2158 2.42956 33.7707 1.34082 36.3499 1.34082C39.9406 1.34049 42.8619 4.26213 42.8619 7.85302C42.8619 13.6829 37.2514 19.2939 31.8256 24.7198C31.5981 24.9472 31.3001 25.0608 31.0021 25.0605Z" fill="#1FB37F"/>
<path fill-rule="evenodd" clip-rule="evenodd" d="M8.32791 28.6525C8.04344 28.6525 7.75831 28.549 7.53383 28.3395C2.53888 23.6794 0.00412207 18.739 4.97068e-06 13.6551C-0.00568054 6.61472 4.86785 1.97247 5.0754 1.77812C5.54482 1.33876 6.28178 1.36301 6.72146 1.83262C7.16042 2.30131 7.1367 3.03716 6.66885 3.47691C6.62526 3.51782 2.31113 7.66112 2.32911 13.681C2.34224 18.0842 4.62788 22.4433 9.12264 26.6366C9.59297 27.0749 9.61852 27.8121 9.17982 28.2825C8.95051 28.5283 8.63957 28.6525 8.32791 28.6525Z" fill="#1FB37F"/>
<path fill-rule="evenodd" clip-rule="evenodd" d="M86.8831 28.6526C86.5714 28.6526 86.2606 28.5284 86.0313 28.2826C85.5926 27.8118 85.6181 27.0753 86.0883 26.6366C90.5832 22.4431 92.8688 18.0846 92.8819 13.6811C92.8999 7.66108 88.5859 3.51816 88.5422 3.47699C88.0753 3.03607 88.0525 2.2997 88.4922 1.83172C88.9322 1.36388 89.6667 1.33944 90.1356 1.7782C90.3433 1.9721 95.2169 6.6152 95.211 13.6552C95.207 18.7389 92.6723 23.6798 87.6773 28.3395C87.4529 28.5488 87.1676 28.6528 86.8831 28.6526Z" fill="#1FB37F"/>
</svg>
