<svg width="100" height="100" viewBox="0 0 100 100" fill="none" xmlns="http://www.w3.org/2000/svg">
<path d="M96.6051 50.3257C93.7052 49.029 90.2888 50.334 88.9923 53.2344L84.2566 63.8278C82.6863 62.2241 80.222 61.6763 78.0543 62.6411L69.7237 66.3444C68.17 66.39 66.5894 66.5788 65.0191 66.9025C58.0763 68.334 52.4444 72.1577 50.0008 76.7884C47.5573 72.1577 41.9254 68.334 34.9826 66.9025C33.4123 66.5788 31.8317 66.3921 30.278 66.3444L21.9474 62.6411C20.6012 62.0436 19.0993 62.0062 17.7158 62.5373C16.9607 62.8278 16.2928 63.2676 15.7451 63.8278L11.0094 53.2344C9.71293 50.334 6.29856 49.029 3.39655 50.3257C0.511141 51.6162 -0.770804 54.9481 0.475877 57.9149L9.45364 79.2448C10.4099 81.5187 12.1524 83.1349 14.4901 83.9212L31.8607 89.7614C32.5328 89.9876 32.9497 90.5685 32.9497 91.2759V95.2967C32.9497 98.3838 37.5506 100 42.0976 100C45.2008 100 48.3289 99.2469 50.0008 97.7863C51.6769 99.2469 54.8071 100 57.902 100C60.1817 100 62.3432 99.6037 63.9881 98.8817C66.6516 97.7158 67.0478 96.1349 67.0478 95.2946V91.2739C67.0478 90.5643 67.4647 89.9834 68.1368 89.7593L85.5074 83.9191C87.8452 83.1328 89.5876 81.5166 90.5439 79.2427L99.5217 57.9129C100.772 54.9481 99.4905 51.6162 96.6051 50.3257ZM48.7562 95.2967C48.7562 96.0768 46.2276 97.5104 42.0976 97.5104C37.9676 97.5104 35.4389 96.0768 35.4389 95.2967V91.2759C35.4389 89.4896 34.3458 87.9689 32.6531 87.4004L15.2825 81.5602C13.6189 81 12.4282 79.8963 11.7479 78.278L2.7701 56.9481C2.05238 55.2427 2.77218 53.3319 4.41091 52.5975C4.83407 52.4087 5.28421 52.3133 5.73434 52.3133C6.13054 52.3133 6.52881 52.3859 6.91257 52.5332C7.73193 52.8465 8.37913 53.4564 8.73384 54.249L14.2682 66.6286C13.7807 69.1058 15.0481 71.6847 17.4502 72.7531L29.0396 77.9046C29.6681 78.1846 30.4024 77.9004 30.6825 77.2718C30.9625 76.6432 30.6783 75.9087 30.0498 75.6286L18.4604 70.4772C16.9275 69.7946 16.2326 67.9938 16.9151 66.4585C17.2428 65.7199 17.8444 65.1515 18.6056 64.8589C19.3669 64.5664 20.1946 64.5851 20.9331 64.9129L29.4897 68.7158C29.6412 68.7822 29.805 68.8195 29.971 68.8237C31.4541 68.8527 32.9705 69.027 34.4785 69.3361C42.0603 70.8983 48.0468 75.7178 48.7542 80.8133V95.2967H48.7562ZM97.2316 56.9481L88.2538 78.278C87.5734 79.8963 86.3828 81 84.7191 81.5602L67.3486 87.4004C65.6559 87.9689 64.5627 89.4896 64.5627 91.2759V95.2967C64.5627 95.5954 64.0711 96.1307 62.9945 96.6017C61.6753 97.1784 59.8208 97.5104 57.9062 97.5104C53.7927 97.5104 51.2579 96.0788 51.2475 95.3008V95.2988V95.2967V80.8299C51.9466 75.7282 57.9352 70.9025 65.5232 69.3382C67.0291 69.027 68.5455 68.8548 70.0307 68.8257C70.1967 68.8216 70.3605 68.7863 70.512 68.7178L79.0686 64.9149C80.6016 64.2344 82.4042 64.9274 83.0866 66.4606C83.7691 67.9938 83.0742 69.7967 81.5412 70.4793L69.9519 75.6307C69.3234 75.9108 69.0412 76.6452 69.3192 77.2739C69.5992 77.9025 70.3336 78.1847 70.9621 77.9066L82.5515 72.7552C84.9535 71.6867 86.221 69.1079 85.7335 66.6307L91.2678 54.251C91.6226 53.4564 92.2698 52.8485 93.0891 52.5353C93.9085 52.222 94.7963 52.2448 95.5908 52.5996C97.2274 53.332 97.9493 55.2427 97.2316 56.9481ZM33.0493 59.1577L40.3012 52.0104C40.8426 51.4751 41.2907 50.8838 41.6371 50.249V56.6079C41.6371 59.2676 43.8006 61.4315 46.4599 61.4315C49.1192 61.4315 51.2828 59.2676 51.2828 56.6079V46.2448C51.2828 43.6535 50.3742 41.4191 48.5841 39.5934C48.806 39.1909 48.9305 38.7344 48.9305 38.2635V34.0788C49.6814 34.612 50.4696 35.1183 51.3118 35.6037L56.703 38.7178L53.0107 59.5768C52.8904 60.2531 53.3426 60.9004 54.0188 61.0187C54.0914 61.0311 54.1661 61.0373 54.2367 61.0373C54.8299 61.0373 55.3547 60.612 55.4605 60.0104L57.8502 46.5166H68.1244L68.9438 53.083C67.3673 53.7676 66.2596 55.3382 66.2596 57.166C66.2596 59.6183 68.2551 61.6141 70.7069 61.6141C73.1588 61.6141 75.1543 59.6183 75.1543 57.166C75.1543 54.9544 73.5301 53.1183 71.4122 52.778L70.151 42.6846C69.6947 39.0228 67.2552 36.0083 64.0421 34.9606C64.1707 33.1743 63.2953 31.3817 61.6441 30.4295L54.0271 26.0311C53.1684 25.5353 52.5585 24.9357 52.0482 24.0871L50.9799 22.3112C51.569 21.4232 51.8781 20.4502 51.8781 19.4585C51.8781 17.6867 50.87 16.029 49.0404 14.7946C48.9803 14.7552 48.9201 14.7178 48.86 14.6805C49.8453 15.1411 50.9447 15.3983 52.1022 15.3983C56.3463 15.3983 59.8 11.944 59.8 7.69917C59.8 3.45436 56.3525 0 52.1063 0C47.8601 0 44.4063 3.45436 44.4063 7.69917C44.4063 10.4108 45.8169 12.7988 47.941 14.1701C45.8086 13.166 43.4272 13.1971 41.2409 14.2988C35.0635 17.4129 30.6846 25.2282 30.5954 33.305C30.5642 36.0477 31.0206 38.7863 31.952 41.444L32.9995 44.8963C33.1157 45.2822 33.0265 45.6349 32.7402 45.917L26.2786 52.2842C25.3639 53.1867 24.8536 54.3942 24.8453 55.6846C24.8349 56.9751 25.3265 58.1909 26.2289 59.1058C28.0937 61.0021 31.1534 61.0249 33.0493 59.1577ZM52.1063 2.48963C54.9793 2.48963 57.315 4.8278 57.315 7.69917C57.315 10.5705 54.9793 12.9108 52.1063 12.9108C49.2333 12.9108 46.8956 10.5726 46.8956 7.70124C46.8956 4.82988 49.2354 2.48963 52.1063 2.48963ZM72.6693 57.1701C72.6693 58.251 71.7898 59.1286 70.7111 59.1286C69.6304 59.1286 68.7529 58.249 68.7529 57.1701C68.7529 56.6494 68.9583 56.1784 69.2902 55.8278L69.4769 57.3257C69.5557 57.9564 70.0909 58.417 70.7111 58.417C70.763 58.417 70.8148 58.4129 70.8667 58.4066C71.5491 58.3216 72.0324 57.6992 71.9474 57.0166L71.7607 55.5187C72.3042 55.8651 72.6693 56.4751 72.6693 57.1701ZM67.6846 42.9979L67.8132 44.0311H58.292L59.1072 39.4315C59.1445 39.4315 59.184 39.4357 59.2213 39.4357C59.6424 39.4357 60.0656 39.3797 60.4846 39.2676C61.6172 38.9647 62.5776 38.2759 63.2248 37.3174C65.5315 38.0581 67.3527 40.3237 67.6846 42.9979ZM52.7867 28.1909L60.4037 32.5892C61.5176 33.2324 61.9014 34.6639 61.2583 35.778C60.9492 36.3154 60.4452 36.6992 59.8395 36.861C59.2337 37.0228 58.6052 36.9419 58.07 36.6328L52.5564 33.4502C49.084 31.4461 46.5367 29.0705 44.2922 25.749L42.7012 23.3963C42.3071 22.8112 42.1806 22.1909 42.3154 21.4979C42.4502 20.805 42.7987 20.278 43.3837 19.8838L43.4791 19.8195C43.9126 19.527 44.3669 19.3817 44.8502 19.3817C45.0411 19.3817 45.2361 19.4046 45.4373 19.4481C46.1488 19.6058 46.6777 19.9876 47.0553 20.612L49.9179 25.3734C50.6501 26.5871 51.5608 27.4813 52.7867 28.1909ZM28.0252 54.0581L34.4868 47.6909C35.4327 46.7593 35.7667 45.444 35.3809 44.1743L34.325 40.6971C34.3209 40.6805 34.3147 40.6618 34.3084 40.6452C33.4683 38.2552 33.0555 35.7946 33.0846 33.334C33.1655 26.1494 36.9802 19.2365 42.361 16.5249C44.1056 15.6452 46.0347 15.7697 47.6527 16.861C48.4472 17.3963 49.3931 18.2842 49.3931 19.4627C49.3931 19.527 49.3889 19.5913 49.3827 19.6535L49.1877 19.3299C48.4617 18.1224 47.3519 17.3237 45.9766 17.0187C44.6013 16.7137 43.2572 16.9668 42.0893 17.7531L41.9939 17.8174C40.8654 18.5768 40.1311 19.6846 39.8697 21.0207C39.6105 22.3568 39.876 23.6598 40.6373 24.7863L42.2283 27.139C43.5102 29.0353 44.8834 30.6494 46.4413 32.0747V38.2635C46.4413 38.388 46.3562 38.471 46.2857 38.5062C45.9165 38.6826 45.6572 39.0311 45.5929 39.4357C45.5286 39.8402 45.6675 40.251 45.9662 40.5332L46.5989 41.1328C48.0572 42.5166 48.7957 44.2386 48.7957 46.2469V56.61C48.7957 57.8983 47.7481 58.944 46.462 58.944C45.1759 58.944 44.1284 57.8963 44.1284 56.61V45.6494C44.1284 45.3195 43.9977 45.0021 43.7633 44.7697L41.8528 42.8589C41.4815 42.4876 40.9173 42.388 40.4423 42.612C39.9672 42.8361 39.6831 43.332 39.7328 43.8548C39.7806 44.3589 39.8469 44.9108 39.9154 45.4958L39.9921 46.1473C40.1747 47.7158 39.6768 49.1286 38.5525 50.2365L31.3006 57.3838C30.3838 58.2863 28.9027 58.2759 27.9983 57.3589C27.5627 56.917 27.3262 56.3299 27.3303 55.7033C27.3386 55.0788 27.5834 54.4938 28.0252 54.0581Z" fill="#2295BF"/>
</svg>
