<svg width="99" height="100" viewBox="0 0 99 100" fill="none" xmlns="http://www.w3.org/2000/svg">
<path d="M88.195 56.2765C89.3882 57.4747 90.9787 58.1344 92.6744 58.1344H92.6791C94.3737 58.133 95.962 57.4728 97.1486 56.2779C98.3414 55.0833 98.9988 53.4884 99 51.7867C99.0012 50.0822 98.3441 48.4829 97.1499 47.2833L87.8858 37.9798C93.343 34.8227 97.025 28.9025 97.025 22.1348C97.025 12.0636 88.8662 3.86982 78.8376 3.86982C72.0993 3.86982 66.205 7.56884 63.0627 13.0512L50.4652 0.400538C49.9334 -0.133513 49.0713 -0.133513 48.5395 0.400538L41.5105 7.45945L28.123 20.9021V15.5244H29.2201C30.7126 15.5244 31.9268 14.3049 31.9268 12.8058V5.63596C31.9268 4.134 30.7126 2.91209 29.2201 2.91209H10.0234C8.52779 2.91209 7.31105 4.1342 7.31105 5.63596V12.8058C7.31105 14.3049 8.52779 15.5244 10.0234 15.5244H11.1205V37.9741L1.84797 47.2847C-0.616509 49.7667 -0.615924 53.8006 1.84933 56.2765C3.0425 57.4747 4.63319 58.1344 6.32873 58.1344H6.33321C8.02777 58.133 9.61612 57.473 10.8042 56.2765L11.1203 55.9591V87.2826H8.56813C5.07515 87.2826 2.23361 90.1339 2.23361 93.6385C2.23361 97.1462 5.07515 100 8.56813 100H90.437C93.9268 100 96.7659 97.1462 96.7659 93.6385C96.7659 90.1339 93.9267 87.2826 90.437 87.2826H87.8844V55.9646L88.195 56.2765ZM95.2241 49.2172C95.9034 49.8996 96.2773 50.8113 96.2765 51.7847C96.276 52.7552 95.9026 53.6632 95.2229 54.3438C94.5477 55.024 93.6435 55.3988 92.6772 55.3994C92.6764 55.3994 92.6754 55.3994 92.6746 55.3994C91.7065 55.3994 90.7996 55.0242 90.1209 54.3424L76.0221 40.1837C76.9493 40.3293 77.8901 40.4054 78.8376 40.4054C81.1021 40.4054 83.2708 39.9863 85.272 39.2233L95.2241 49.2172ZM78.8374 6.60504C87.3643 6.60504 94.3014 13.5718 94.3014 22.1348C94.3014 30.7009 87.3641 37.6702 78.8374 37.6702C75.9298 37.6702 73.0935 36.8522 70.6349 35.3045C70.4168 35.1671 70.1658 35.0957 69.9115 35.0957C69.832 35.0957 69.7521 35.1027 69.673 35.1168L61.6139 36.5567L64.4328 28.7407C64.5453 28.4289 64.5412 28.0872 64.4213 27.7786C63.7257 25.9851 63.373 24.0861 63.373 22.135C63.3732 13.5716 70.3104 6.60504 78.8374 6.60504ZM10.0234 5.64731H29.2033V12.7892H26.7611H12.4822H10.0345L10.0234 5.64731ZM13.8439 15.5244H25.3993V23.6368L13.8439 35.2397V15.5244ZM8.87738 54.3438C8.20217 55.0238 7.29799 55.3988 6.33165 55.3994C6.33087 55.3994 6.3299 55.3994 6.32892 55.3994C5.36082 55.3994 4.45411 55.0242 3.77539 54.3424C2.3704 52.9315 2.37099 50.6317 3.77539 49.2174L49.5024 3.30132L61.8253 15.6765C61.0665 17.6853 60.6499 19.862 60.6499 22.1346C60.6499 23.0908 60.7261 24.0358 60.8697 24.9669L50.4652 14.5185C49.9334 13.9845 49.0713 13.9845 48.5395 14.5185L8.87738 54.3438ZM94.0424 93.6385C94.0424 95.638 92.425 97.2648 90.4368 97.2648H8.56813C6.57699 97.2648 4.95706 95.638 4.95706 93.6385C4.95706 91.6419 6.57699 90.0178 8.56813 90.0178H12.4824H86.5227H90.437C92.4248 90.0178 94.0424 91.6419 94.0424 93.6385ZM85.1608 87.2826H13.8439V53.2244L49.5024 17.4193L61.3343 29.3015L58.2505 37.852C58.0849 38.3115 58.1757 38.8246 58.489 39.1984C58.8022 39.572 59.2897 39.7489 59.7693 39.6642L69.6447 37.8996C69.834 38.0109 70.0251 38.1182 70.2176 38.2225L85.1608 53.2293V87.2826ZM57.8023 44.2268C57.8025 44.2268 57.8021 44.2268 57.8023 44.2268C54.7332 44.2268 51.8308 45.2714 49.5024 47.1921C47.1735 45.2712 44.2716 44.2268 41.2018 44.2268C37.6931 44.2268 34.4018 45.5916 31.9342 48.0696C26.8265 53.199 26.8265 61.5448 31.9342 66.6743L48.5395 83.3446C48.8055 83.6115 49.1539 83.745 49.5024 83.745C49.8508 83.745 50.1994 83.6113 50.4652 83.3444L67.0651 66.6741C72.1727 61.5448 72.1727 53.199 67.0657 48.0702C64.6008 45.5918 61.3109 44.2268 57.8023 44.2268ZM65.1394 64.7399L49.5022 80.4434L33.8598 64.7399C29.8142 60.6771 29.8142 54.0665 33.8598 50.0035C35.813 48.042 38.4205 46.9616 41.2018 46.9616C43.9828 46.9616 46.5885 48.0419 48.5389 50.0029C48.7942 50.2597 49.1409 50.4041 49.5024 50.4041C49.8638 50.4041 50.2105 50.2597 50.4658 50.0029C52.4164 48.0417 55.0218 46.9616 57.8023 46.9616C60.5829 46.9616 63.1882 48.0419 65.1392 50.0035C69.185 54.0665 69.185 60.6771 65.1394 64.7399ZM62.3698 62.064C62.3698 62.8194 61.76 63.4315 61.0081 63.4315H55.9565L53.7699 68.8759C53.5622 69.3933 53.0622 69.7319 52.5072 69.7319C52.5037 69.7319 52.5002 69.7319 52.4967 69.7317C51.9376 69.7276 51.4378 69.3804 51.2367 68.8563L46.9658 57.7334L44.846 62.6107C44.6293 63.1092 44.1394 63.4313 43.5979 63.4313H37.5777C36.8257 63.4313 36.216 62.819 36.216 62.0638C36.216 61.3086 36.8257 60.6963 37.5777 60.6963H42.7066L45.7956 53.5886C46.0164 53.0804 46.5207 52.7567 47.0734 52.7685C47.6254 52.7804 48.1155 53.1262 48.3143 53.6436L52.5357 64.6376L53.7748 61.5524C53.9825 61.0352 54.4824 60.6965 55.0377 60.6965H61.0085C61.7602 60.6963 62.3698 61.3086 62.3698 62.064ZM70.044 26.6581H74.3332V30.9655C74.3332 31.7209 74.943 32.333 75.6949 32.333H81.9798C82.7318 32.333 83.3415 31.7207 83.3415 30.9655V26.6581H87.6251C88.3771 26.6581 88.9868 26.0458 88.9868 25.2906V18.979C88.9868 18.2236 88.3771 17.6115 87.6251 17.6115H83.3415V13.3095C83.3415 12.5542 82.7318 11.942 81.9798 11.942H75.6949C74.943 11.942 74.3332 12.5544 74.3332 13.3095V17.6115H70.044C69.292 17.6115 68.6823 18.2238 68.6823 18.979V25.2906C68.6823 26.046 69.292 26.6581 70.044 26.6581ZM71.4057 20.3467H75.6949C76.4469 20.3467 77.0567 19.7344 77.0567 18.9792V14.6773H80.6181V18.9792C80.6181 19.7346 81.2278 20.3467 81.9798 20.3467H86.2633V23.9231H81.9798C81.2278 23.9231 80.6181 24.5354 80.6181 25.2906V29.598H77.0567V25.2906C77.0567 24.5352 76.4469 23.9231 75.6949 23.9231H71.4057V20.3467Z" fill="#F8AD18"/>
</svg>
