<svg width="100" height="100" viewBox="0 0 100 100" fill="none" xmlns="http://www.w3.org/2000/svg">
<path d="M21.9133 69.5513C17.6259 69.5513 13.9736 73.0447 13.9736 77.4909C13.9736 81.9371 17.4671 85.4306 21.9133 85.4306C26.2007 85.4306 29.853 81.9371 29.853 77.4909C29.6942 73.0447 26.2007 69.5513 21.9133 69.5513ZM21.9133 82.8899C18.8962 82.8899 16.3555 80.3492 16.3555 77.3321C16.3555 74.3151 18.8962 71.7744 21.9133 71.7744C24.9304 71.7744 27.4711 74.3151 27.4711 77.3321C27.4711 80.508 24.9304 82.8899 21.9133 82.8899Z" fill="#7263F3"/>
<path d="M23.5015 74.7918L20.9608 77.3324L20.3256 76.6973C19.8492 76.2209 19.0552 76.2209 18.7377 76.6973C18.2613 77.1737 18.2613 77.9676 18.7377 78.2852L20.3256 79.8731C20.802 80.3495 21.5959 80.3495 21.9135 79.8731L25.2482 76.5385C25.7246 76.0621 25.7246 75.2681 25.2482 74.9505C24.7718 74.633 23.9778 74.3154 23.5015 74.7918Z" fill="#7263F3"/>
<path d="M69.7101 7.14551H60.0237C59.3886 7.14551 58.9122 7.62189 58.9122 8.25706C58.9122 8.89223 59.3886 9.36861 60.0237 9.36861H69.7101C71.6156 9.36861 73.0448 10.7978 73.0448 12.7033V94.0054C73.0448 95.9109 71.6156 97.34 69.7101 97.34H5.71645C3.81094 97.34 2.3818 95.9109 2.3818 94.0054C2.3818 93.3702 1.90542 92.8938 1.27024 92.8938C0.635071 92.8938 0.158691 93.3702 0.158691 94.0054C0.158691 97.1812 2.69938 99.7219 5.87525 99.7219H70.0277C73.2036 99.7219 75.7443 97.1812 75.7443 94.0054V12.8621C75.4267 9.6862 72.886 7.14551 69.7101 7.14551Z" fill="#7263F3"/>
<path d="M1.11155 86.5421C1.74673 86.5421 2.2231 86.0657 2.2231 85.4305V12.8621C2.2231 10.9565 3.65224 9.52741 5.55776 9.52741H15.4029C16.0381 9.52741 16.5145 9.05103 16.5145 8.41585C16.5145 7.78068 16.1969 7.14551 15.5617 7.14551H5.71655C2.54069 7.14551 0 9.6862 0 12.8621V85.4305C0 85.9069 0.47638 86.5421 1.11155 86.5421Z" fill="#7263F3"/>
<path d="M9.84495 13.3389C9.20978 13.3389 8.7334 13.8152 8.7334 14.4504V91.3063C8.7334 91.9415 9.20978 92.4179 9.84495 92.4179H67.8045C68.4396 92.4179 68.916 91.9415 68.916 91.3063V14.6092C68.916 13.974 68.4396 13.4977 67.8045 13.4977H60.5C59.8648 13.4977 59.3884 13.974 59.3884 14.6092C59.3884 15.2444 59.8648 15.7208 60.5 15.7208H66.6929V90.3536H11.1153V15.7208H15.8791C16.5143 15.7208 16.9906 15.2444 16.9906 14.6092C16.9906 13.974 16.5143 13.4977 15.8791 13.4977L9.84495 13.3389Z" fill="#7263F3"/>
<path d="M22.231 20.8019H53.3545C55.1012 20.8019 56.5304 19.3728 56.5304 17.626V3.17586C56.5304 1.42914 55.1012 0 53.3545 0H22.231C20.4843 0 19.0552 1.42914 19.0552 3.17586V17.626C19.0552 19.3728 20.4843 20.8019 22.231 20.8019ZM21.4371 3.17586C21.4371 2.69948 21.7547 2.3819 22.231 2.3819H53.3545C53.8309 2.3819 54.1485 2.69948 54.1485 3.17586V17.626C54.1485 18.1024 53.8309 18.42 53.3545 18.42H22.231C21.7547 18.42 21.4371 18.1024 21.4371 17.626V3.17586Z" fill="#7263F3"/>
<path d="M26.2007 14.9267C26.8359 14.9267 27.3122 14.4503 27.3122 13.8151V8.25739H48.2729V13.8151C48.2729 14.4503 48.7493 14.9267 49.3845 14.9267C50.0197 14.9267 50.496 14.4503 50.496 13.8151V6.98704C50.496 6.35187 50.0197 5.87549 49.3845 5.87549H26.2007C25.5655 5.87549 25.0891 6.35187 25.0891 6.98704V13.6564C24.9303 14.4503 25.5655 14.9267 26.2007 14.9267Z" fill="#7263F3"/>
<path d="M59.5473 36.8398H51.1312L46.8438 23.1836C46.685 22.7072 46.3674 22.3896 45.891 22.3896C45.4147 22.3896 44.9383 22.5484 44.7795 23.0248L34.7755 42.2388L30.3293 27.7886C30.1705 27.3122 29.8529 26.9947 29.3766 26.9947C28.9002 26.9947 28.4238 27.1534 28.265 27.6298L23.5012 36.0459H15.8791C15.244 36.0459 14.7676 36.5222 14.7676 37.1574C14.7676 37.7926 15.244 38.269 15.8791 38.269H24.2952C24.7715 38.269 25.0891 38.1102 25.2479 37.6338L28.9002 31.1233L33.1876 45.7322C33.5052 46.685 34.9343 46.8438 35.4107 45.891L45.4147 26.6771L49.0669 38.4278C49.2257 38.9041 49.7021 39.2217 50.1785 39.2217H59.3885C60.0236 39.2217 60.5 38.7453 60.5 38.1102C60.5 37.475 60.1824 36.8398 59.5473 36.8398Z" fill="#7263F3"/>
<path d="M21.9133 48.5908C17.6259 48.5908 13.9736 52.0843 13.9736 56.5305C13.9736 60.8179 17.4671 64.4701 21.9133 64.4701C26.2007 64.4701 29.853 60.9767 29.853 56.5305C29.6942 52.0843 26.2007 48.5908 21.9133 48.5908ZM21.9133 61.9295C18.8962 61.9295 16.3555 59.3888 16.3555 56.3717C16.3555 53.3546 18.8962 50.8139 21.9133 50.8139C24.9304 50.8139 27.4711 53.3546 27.4711 56.3717C27.4711 59.3888 24.9304 61.9295 21.9133 61.9295Z" fill="#7263F3"/>
<path d="M59.5474 52.4019H35.4109C34.7757 52.4019 34.2993 52.8782 34.2993 53.5134C34.2993 54.1486 34.6169 54.7838 35.4109 54.7838H59.5474C60.1826 54.7838 60.659 54.3074 60.659 53.6722C60.659 53.037 60.1826 52.4019 59.5474 52.4019Z" fill="#7263F3"/>
<path d="M35.411 60.5004H47.4793C48.1145 60.5004 48.5909 60.0241 48.5909 59.3889C48.5909 58.7537 48.1145 58.2773 47.4793 58.2773H35.411C34.7758 58.2773 34.2995 58.7537 34.2995 59.3889C34.1407 60.0241 34.6171 60.5004 35.411 60.5004Z" fill="#7263F3"/>
<path d="M60.659 74.633C60.659 73.9979 60.1826 73.5215 59.5474 73.5215H35.4109C34.7757 73.5215 34.2993 73.9979 34.2993 74.633C34.2993 75.2682 34.7757 75.7446 35.4109 75.7446H59.5474C60.1826 75.7446 60.659 75.2682 60.659 74.633Z" fill="#7263F3"/>
<path d="M35.4109 79.0791C34.7757 79.0791 34.2993 79.5555 34.2993 80.1907C34.2993 80.8258 34.7757 81.3022 35.4109 81.3022H47.4792C48.1143 81.3022 48.5907 80.8258 48.5907 80.1907C48.5907 79.5555 48.1143 79.0791 47.4792 79.0791H35.4109Z" fill="#7263F3"/>
<path d="M23.5015 53.8308L20.9608 56.3715L20.3256 55.7363C19.8492 55.26 19.0552 55.26 18.7377 55.7363C18.2613 56.2127 18.2613 57.0067 18.7377 57.3243L20.3256 58.9122C20.802 59.3886 21.5959 59.3886 21.9135 58.9122L25.2482 55.5775C25.7246 55.1012 25.7246 54.3072 25.2482 53.9896C24.7718 53.672 23.9778 53.3544 23.5015 53.8308Z" fill="#7263F3"/>
<path d="M99.4044 81.7786C99.4044 81.461 99.4044 85.9072 99.4044 29.2181C99.4044 28.9005 99.2456 28.4241 98.928 28.2653C92.5763 23.8191 86.2246 23.8191 79.8729 28.2653C79.5553 28.4241 79.3965 28.9005 79.3965 29.2181V73.5214C79.3965 74.1566 79.8729 74.6329 80.508 74.6329C81.1432 74.6329 81.6196 74.1566 81.6196 73.5214V36.9989C81.7784 36.9989 97.9753 36.9989 96.8637 36.9989V80.6671C96.7049 80.6671 80.508 80.6671 81.6196 80.6671V79.0791C81.6196 78.444 81.1432 77.9676 80.508 77.9676C79.8729 77.9676 79.3965 78.444 79.3965 79.0791V81.9374C79.3965 82.0962 79.3965 82.255 79.5553 82.4138L88.4477 99.4047C88.9241 100.199 90.0356 100.199 90.512 99.4047C90.6708 99.2459 99.4044 82.0962 99.4044 82.255C99.4044 82.0962 99.4044 81.9374 99.4044 81.7786ZM97.0225 29.8533V34.617C96.8637 34.617 80.6668 34.617 81.7784 34.617V29.8533C86.8598 26.3598 91.9411 26.3598 97.0225 29.8533ZM89.4005 96.2288L82.5723 82.8902C82.7311 82.8902 97.0225 82.8902 96.3874 82.8902L89.4005 96.2288Z" fill="#7263F3"/>
</svg>
